<svg xmlns="http://www.w3.org/2000/svg" version="1.1" xmlns:xlink="http://www.w3.org/1999/xlink" xmlns:svgjs="http://svgjs.dev/svgjs" width="1000" height="750" viewBox="0 0 1000 750"><rect width="1000" height="750" fill="#ffffff"></rect><g transform="matrix(0.5191111111111111,0,0,0.5191111111111111,240.4444444444445,83)"><svg viewBox="0 0 320 360" data-background-color="#ffffff" preserveAspectRatio="xMidYMid meet" height="1125" width="1000" xmlns="http://www.w3.org/2000/svg" xmlns:xlink="http://www.w3.org/1999/xlink"><g id="tight-bounds" transform="matrix(1,0,0,1,0,0)"><svg viewBox="0 0 320 360" height="360" width="320"><g><svg></svg></g><g><svg viewBox="0 0 320 360" height="360" width="320"><g><path xmlns="http://www.w3.org/2000/svg" d="M20.961 227.22l3.726 4.658-1.863-6.056c-0.466-2.795-3.726 0.466-1.863 1.398M25.153 224.425c1.397 2.329 2.795 4.658 2.795 6.987 0 3.261 2.795 4.658 5.123 5.589-3.261-3.726-5.124-13.974-7.918-12.576M204.017 26.929c7.918 0 15.371-0.932 23.756 0.931 20.495 5.124 37.729 15.371 49.374 29.811l32.606 52.169c1.397 13.042 4.192 27.482 3.726 43.319 3.261 0 2.795-4.658 6.521-5.59-3.726 9.316-5.59 20.961-6.521 34.469-2.329-7.453 0-18.632 0.466-24.687-3.261 5.124-5.124 1.397-5.124-0.932 0.466-3.726-1.397-3.261-2.795-4.658-5.124-4.658-8.384-9.782-12.11-17.7 2.329-6.055 2.795-14.905-4.658-19.563-2.329-1.397-5.124-3.726-6.521-7.453-1.863-5.124-5.124-11.179-4.193-19.097 0.466-2.329-6.987 5.124-11.179 1.863-18.166-12.576-36.332-27.016-58.224-39.127-11.645 0-20.029-4.192-24.221-9.316-3.726-4.658-0.932-10.713 4.658-11.179 3.261 0 6.987-0.932 9.782 0.932 0.466-1.863 2.329-4.192 4.657-4.192M157.904 16.215l0.932 0.466c4.658 0.932 6.987 7.453 12.11 5.124 0 3.261 0.466 6.521-0.466 8.85-1.397 3.726-5.59 3.726-8.85 3.726-31.208-1.863-49.374 11.179-68.471 22.358-5.124 3.261-10.713 5.59-14.906 9.782-20.029 18.632-41.921 35.866-47.045 70.335l-4.192 38.195c-0.466 4.192-5.124 8.384-4.192 13.508l3.26 22.824c-3.261-3.261-5.124 0.932-4.192 2.795 0.466 1.397 2.329 6.055 5.124 1.863 3.726 6.987 7.453 20.495 12.576 26.55 15.837 18.632 36.332 35.4 53.101 52.169 4.192-0.932 7.453-0.932 8.384-3.727 1.397 2.795-1.397 5.59-3.726 6.056 7.453 4.658 15.837 8.85 27.016 9.781 14.44 0.932 27.948 3.261 40.524 6.522 6.521-1.863 13.042-2.795 20.029-3.261 2.329 0 3.726-3.726 6.521-4.658l0.466-4.658c2.795 4.192 2.329-1.397 0.466-4.192 3.261 2.795 4.192 5.124 5.589 6.987 0-1.397 3.726-6.521 3.727-0.466l0.931-6.055c1.397-0.932 1.863 5.124 3.261 0.931 1.397-4.192 4.192-0.932 6.987-2.329-0.932 1.863-0.466 5.59 2.794 3.261l3.727-3.261c2.329 5.59 6.055 3.261 7.918 2.329 20.495-13.042 40.99-28.413 60.553-43.784l-0.466 6.055 2.329-7.453c2.329 2.329 4.192 0.466 5.124-0.931 2.795-4.658 6.521-9.316 12.577-13.508-7.453 20.029-16.303 35.866-27.482 48.908l-4.658 5.59c0 3.261-0.932 7.453-4.658 7.918-1.863 0.466-5.59-0.932-8.384 1.863-1.397 1.863 3.261 5.59-0.466 2.795-3.261-2.329-6.521 0-10.248 0.932-2.795 0.932 1.863 3.726 2.795 5.589 0.932 1.863 1.863 3.726 1.398 6.056l-5.124-5.59c-6.055 3.261-9.782 9.316-14.906 13.974-2.329 1.863-1.397 5.124-1.397 7.918-3.261 0-6.987-0.932-8.85 0.932-1.397 1.863-0.932 4.658-0.932 7.453-4.658-0.466-5.124-7.453-9.315-6.056-4.192 0.932-8.85 1.397-12.577 3.727 2.795 5.59-4.658 2.329-3.726 3.26-6.987-4.192-13.042-7.453-20.495-4.658-15.837-5.124-35.4-2.795-49.84-0.931 0-2.329 0.466-4.658-0.466-5.124-0.932 2.329-3.726 1.397-3.26 1.397-8.85-6.055-17.7-9.782-27.016-14.905-8.384 0.932-16.303-3.261-18.632-5.59-6.521-6.055-13.974-2.795-20.029-4.192-13.042-3.261-17.7-16.769-19.098-26.084-0.932-4.658-4.658-6.521-6.055-6.056-6.055-19.563-15.371-37.263-22.824-55.429-1.863-4.658-1.397-9.316-1.397-14.44 2.329 0.932 4.658 0.466 4.192-2.794-2.329-15.371-7.918-27.016-13.974-38.195 3.261-15.837 3.726-34.469 11.179-48.443 6.521-12.576 18.632-19.098 27.016-29.811 2.795-3.726 2.795-8.85 5.59-12.11 9.316-9.316 18.632-19.098 28.879-27.482 4.658-3.726 10.247 0 17.234-1.397 2.329-8.384 11.645-15.837 20.495-13.508 3.726 0.932 11.179-8.85 13.508-9.782 3.726-1.397 1.863 3.726 1.863 6.987 8.85-6.987 20.961-10.713 32.14-14.906" fill="#1ebbd7" fill-rule="nonzero" stroke="none" stroke-width="1" stroke-linecap="butt" stroke-linejoin="miter" stroke-miterlimit="10" stroke-dasharray="" stroke-dashoffset="0" font-family="none" font-weight="none" font-size="none" text-anchor="none" style="mix-blend-mode: normal" data-fill-palette-color="tertiary"></path></g><g transform="matrix(1,0,0,1,64,138.31480031323414)"><svg viewBox="0 0 192 83.37039937353173" height="83.37039937353173" width="192"><g><svg viewBox="0 0 192 83.37039937353173" height="83.37039937353173" width="192"><g><svg viewBox="0 0 192 83.37039937353173" height="83.37039937353173" width="192"><g id="textblocktransform"><svg viewBox="0 0 192 83.37039937353173" height="83.37039937353173" width="192" id="textblock"><g><svg viewBox="0 0 192 83.37039937353173" height="83.37039937353173" width="192"><g transform="matrix(1,0,0,1,0,0)"><svg width="192" viewBox="3.5999999046325684 -37.099998474121094 127.68999481201172 55.44999694824219" height="83.37039937353173" data-palette-color="#1ebbd7"><path d="M24.55-2.9L24.55-2.9Q24.55-5 25.25-8.3 25.95-11.6 27.1-15.35L27.1-15.35Q23.8-15.1 20.48-14.7 17.15-14.3 14.7-14.25L14.7-14.25Q12.45-9 11.13-4.58 9.8-0.15 9.05 4.05L9.05 4.05Q7.15 3.6 5.9 2.48 4.65 1.35 3.6-0.35L3.6-0.35Q4-1.15 4.53-2.4 5.05-3.65 5.78-5.43 6.5-7.2 7.43-9.58 8.35-11.95 9.55-15.1L9.55-15.1Q7.9-15.8 7.35-17.05L7.35-17.05Q7.6-17.25 8.47-17.48 9.35-17.7 10.65-17.95L10.65-17.95 11.3-19.55Q12.35-22.25 13.03-24.1 13.7-25.95 14.18-27.73 14.65-29.5 15.08-31.65 15.5-33.8 16.1-37.1L16.1-37.1Q18.2-36.7 19.93-35.25 21.65-33.8 22.9-31.75L22.9-31.75Q22.45-31.15 21.8-29.95 21.15-28.75 20.38-27.08 19.6-25.4 18.7-23.33 17.8-21.25 16.75-18.95L16.75-18.95Q19.85-19.35 23.03-19.7 26.2-20.05 28.65-20.2L28.65-20.2Q29.55-22.8 30.53-25.28 31.5-27.75 32.45-29.8 33.4-31.85 34.27-33.4 35.15-34.95 35.85-35.7L35.85-35.7Q36.35-35.65 37.18-35.33 38-35 38.85-34.55 39.7-34.1 40.4-33.58 41.1-33.05 41.35-32.6L41.35-32.6Q40.45-31.75 39.55-30.4 38.65-29.05 37.77-27.3 36.9-25.55 36.05-23.5 35.2-21.45 34.45-19.25L34.45-19.25Q35.45-18.35 35.45-17L35.45-17Q35.45-16.05 35.05-15.25L35.05-15.25Q34.6-15.35 34.15-15.38 33.7-15.4 33.2-15.45L33.2-15.45Q32.35-12.75 31.65-10.1 30.95-7.45 30.48-5.05 30-2.65 29.73-0.65 29.45 1.35 29.45 2.7L29.45 2.7Q29.45 3.2 29.48 3.5 29.5 3.8 29.55 4L29.55 4Q28.45 3.95 27.95 3.63 27.45 3.3 27.2 2.93 26.95 2.55 26.75 2.18 26.55 1.8 26.1 1.6L26.1 1.6Q25.75 1.45 25.45 0.9 25.15 0.35 24.95-0.35 24.75-1.05 24.65-1.75 24.55-2.45 24.55-2.9ZM43.35 1.75L43.35 1.75Q40.5 1.45 38.8-0.75 37.1-2.95 37.1-6.35L37.1-6.35Q37.1-8.35 37.7-10.5 38.3-12.65 39.4-14.68 40.5-16.7 42-18.5 43.5-20.3 45.25-21.6L45.25-21.6Q48-23.65 50.4-23.65L50.4-23.65Q52-22.8 53.55-20.1L53.55-20.1Q53.8-20.1 54-20.13 54.2-20.15 54.45-20.15L54.45-20.15Q57.1-20.15 57.1-15.45L57.1-15.45Q57.1-12.3 56.07-9.47 55.05-6.65 53.22-4.35 51.4-2.05 48.87-0.48 46.35 1.1 43.35 1.75ZM45.9-14L45.9-14Q45.05-12.85 44.3-11.5 43.55-10.15 43-8.78 42.45-7.4 42.15-6.13 41.85-4.85 41.85-3.85L41.85-3.85Q41.85-2.65 42.25-1.55 42.65-0.45 43.15-0.3L43.15-0.3Q45.4-0.8 47.27-2.18 49.15-3.55 50.52-5.6 51.9-7.65 52.67-10.25 53.45-12.85 53.45-15.8L53.45-15.8Q53.45-17.1 53.3-17.85 53.15-18.6 52.8-19.15L52.8-19.15Q50.6-18.5 48.87-17.05 47.15-15.6 45.9-14ZM76.75-20.2L76.75-20.2Q77.25-20.2 77.92-20.03 78.6-19.85 79.15-19.58 79.7-19.3 80.07-19 80.45-18.7 80.45-18.45L80.45-18.45Q79.45-16.35 78.6-14.23 77.75-12.1 77.15-10.15 76.55-8.2 76.22-6.5 75.9-4.8 75.9-3.55L75.9-3.55Q75.9-2.15 76.2-1.23 76.5-0.3 77.2 0.1L77.2 0.1Q76.6 0.5 75.65 0.75 74.7 1 73.95 1L73.95 1Q71.25 1 71.25-2.7L71.25-2.7Q71.25-5.55 73.15-10.5L73.15-10.5Q72.15-8.2 70.85-6.18 69.55-4.15 68.2-2.6 66.85-1.05 65.47-0.08 64.1 0.9 62.95 1.1L62.95 1.1Q61.1 1 59.95-0.68 58.8-2.35 58.8-4.95L58.8-4.95Q58.8-7.75 60-10.85 61.2-13.95 63.07-16.6 64.95-19.25 67.15-21.03 69.35-22.8 71.4-22.9L71.4-22.9Q71.9-22.75 72.52-22.3 73.15-21.85 73.72-21.25 74.3-20.65 74.7-20.03 75.1-19.4 75.15-18.95L75.15-18.95Q73.15-18.65 71.02-17 68.9-15.35 67.17-13.03 65.45-10.7 64.35-8.05 63.25-5.4 63.25-3.1L63.25-3.1Q63.25-2.15 63.95-1.9L63.95-1.9Q65.4-2.2 67.3-4.38 69.2-6.55 71.9-11.1L71.9-11.1Q72.4-12 73.02-13.1 73.65-14.2 74.3-15.4 74.95-16.6 75.57-17.82 76.2-19.05 76.75-20.2ZM91.09-24.25L91.09-24.25Q92.39-23.85 93.54-22.48 94.69-21.1 95.24-19.45L95.24-19.45Q94.69-18.1 93.54-16.2 92.39-14.3 91.24-12.33 90.09-10.35 89.17-8.58 88.24-6.8 88.09-5.65L88.09-5.65Q88.89-6.5 89.87-7.63 90.84-8.75 91.77-9.88 92.69-11 93.49-11.93 94.29-12.85 94.74-13.3L94.74-13.3Q95.69-14.3 96.99-15.63 98.29-16.95 99.72-18.13 101.14-19.3 102.59-20.13 104.04-20.95 105.24-20.95L105.24-20.95Q106.54-20.95 107.42-20.08 108.29-19.2 108.79-18.25L108.79-18.25Q108.79-18.15 108.42-17.98 108.04-17.8 107.34-17L107.34-17Q106.64-16.1 105.77-14.53 104.89-12.95 104.07-11.13 103.24-9.3 102.69-7.4 102.14-5.5 102.14-3.95L102.14-3.95Q102.14-2.7 102.47-2.35 102.79-2 103.39-2L103.39-2Q103.94-2 104.54-2.25 105.14-2.5 105.49-2.5L105.49-2.5Q105.69-2.4 105.82-2.08 105.94-1.75 105.94-1.5L105.94-1.5Q105.54-1.15 104.99-0.8 104.44-0.45 103.84-0.15 103.24 0.15 102.67 0.35 102.09 0.55 101.64 0.55L101.64 0.55Q100.19 0.55 99.27 0.13 98.34-0.3 97.82-1 97.29-1.7 97.09-2.68 96.89-3.65 96.89-4.75L96.89-4.75Q96.89-5.35 96.99-6.1 97.09-6.85 97.39-7.88 97.69-8.9 98.24-10.33 98.79-11.75 99.64-13.75L99.64-13.75Q99.54-13.75 98.29-13.05 97.04-12.35 95.59-10.9L95.59-10.9Q93.24-8.65 91.37-6.45 89.49-4.25 87.54-1.55L87.54-1.55Q86.44 0 85.62 1.07 84.79 2.15 84.19 2.5L84.19 2.5Q83.14 1.9 82.64 0.83 82.14-0.25 81.89-1.4L81.89-1.4Q81.89-2.35 82.17-3.8 82.44-5.25 82.92-7.03 83.39-8.8 84.09-10.75 84.79-12.7 85.64-14.65L85.64-14.65Q87.54-19.05 89.12-21.55 90.69-24.05 91.09-24.25ZM99.89 14.9L99.89 14.9Q99.89 14.6 100.09 14.35 100.29 14.1 100.54 13.85L100.54 13.85Q101.14 14.4 101.57 14.7 101.99 15 102.37 15.2 102.74 15.4 103.14 15.45 103.54 15.5 104.09 15.5L104.09 15.5Q106.69 15.5 109.04 14.13 111.39 12.75 113.47 10.15 115.54 7.55 117.24 3.8 118.94 0.05 120.24-4.7L120.24-4.7Q119.64-4.1 118.77-3.38 117.89-2.65 116.94-2 115.99-1.35 115.07-0.8 114.14-0.25 113.49 0L113.49 0Q112.64-0.15 111.92-0.73 111.19-1.3 110.64-2.15 110.09-3 109.79-4.08 109.49-5.15 109.49-6.35L109.49-6.35Q109.49-8.3 110.22-10.35 110.94-12.4 112.14-14.38 113.34-16.35 114.97-18.1 116.59-19.85 118.42-21.15 120.24-22.45 122.12-23.23 123.99-24 125.79-24L125.79-24Q127.54-24 128.42-23.28 129.29-22.55 129.69-20.8L129.69-20.8Q129.14-21.1 128.29-21.1L128.29-21.1Q127.09-21.1 125.52-20.15 123.94-19.2 122.32-17.68 120.69-16.15 119.09-14.18 117.49-12.2 116.27-10.15 115.04-8.1 114.27-6.15 113.49-4.2 113.49-2.65L113.49-2.65Q113.49-2.3 113.54-2.23 113.59-2.15 113.69-2.15L113.69-2.15Q114.14-2.15 114.92-2.65 115.69-3.15 116.67-3.93 117.64-4.7 118.69-5.73 119.74-6.75 120.69-7.8L120.69-7.8Q122.84-10.2 124.62-13.18 126.39-16.15 127.44-18.95L127.44-18.95Q128.79-18.85 129.84-18.5 130.89-18.15 131.29-17.75L131.29-17.75Q129.59-13.85 128.57-11.2 127.54-8.55 126.79-6.5L126.79-6.5Q125.44-2.9 124.27 0.08 123.09 3.05 121.87 5.58 120.64 8.1 119.22 10.28 117.79 12.45 115.99 14.45L115.99 14.45Q115.14 15.4 114.07 16.13 112.99 16.85 111.87 17.35 110.74 17.85 109.67 18.1 108.59 18.35 107.69 18.35L107.69 18.35Q106.49 18.35 105.24 18.07 103.99 17.8 102.92 17.32 101.84 16.85 101.04 16.23 100.24 15.6 99.89 14.9Z" opacity="1" transform="matrix(1,0,0,1,0,0)" fill="#1ebbd7" class="undefined-text-0" data-fill-palette-color="primary" id="text-0"></path></svg></g></svg></g></svg></g></svg></g><g></g></svg></g></svg></g></svg></g><defs></defs></svg><rect width="320" height="360" fill="none" stroke="none" visibility="hidden"></rect></g></svg></g></svg>